/* XPM */
static char * polyhedron_xpm[] = {
"32 32 684 2",
"  	c #222322",
". 	c #222323",
"+ 	c #222423",
"@ 	c #222424",
"# 	c #232524",
"$ 	c #232625",
"% 	c #242726",
"& 	c #242826",
"* 	c #232726",
"= 	c #222625",
"- 	c #212524",
"; 	c #212423",
"> 	c #212523",
", 	c #222524",
"' 	c #1F2322",
") 	c #1E2221",
"! 	c #1D2120",
"~ 	c #1D201F",
"{ 	c #232525",
"] 	c #202422",
"^ 	c #1E2321",
"/ 	c #1B1F1E",
"( 	c #1A1E1D",
"_ 	c #1A1F1C",
": 	c #1B241E",
"< 	c #1D2920",
"[ 	c #1E2B21",
"} 	c #1C271F",
"| 	c #1B1F1D",
"1 	c #1C1F1E",
"2 	c #202423",
"3 	c #222624",
"4 	c #232725",
"5 	c #222525",
"6 	c #1C201F",
"7 	c #191E1C",
"8 	c #19201C",
"9 	c #1C281F",
"0 	c #2F372F",
"a 	c #444A40",
"b 	c #616360",
"c 	c #686768",
"d 	c #61605F",
"e 	c #5E5F5C",
"f 	c #404540",
"g 	c #19211C",
"h 	c #1B1E1D",
"i 	c #1A241D",
"j 	c #232E25",
"k 	c #3A4037",
"l 	c #474D42",
"m 	c #5C5E56",
"n 	c #696A67",
"o 	c #5F5F5E",
"p 	c #3D3F3C",
"q 	c #2A3329",
"r 	c #3D4236",
"s 	c #484C3E",
"t 	c #555751",
"u 	c #444744",
"v 	c #181E1A",
"w 	c #1F2321",
"x 	c #212624",
"y 	c #232826",
"z 	c #242827",
"A 	c #242625",
"B 	c #1D211F",
"C 	c #1B231E",
"D 	c #2B342B",
"E 	c #42483E",
"F 	c #4F5248",
"G 	c #585B51",
"H 	c #646660",
"I 	c #727271",
"J 	c #5F605F",
"K 	c #373C33",
"L 	c #5D6F4E",
"M 	c #7BA46D",
"N 	c #90CE86",
"O 	c #98E19C",
"P 	c #5B916A",
"Q 	c #333A30",
"R 	c #545452",
"S 	c #313732",
"T 	c #171B19",
"U 	c #1C201E",
"V 	c #202523",
"W 	c #222726",
"X 	c #232827",
"Y 	c #1C261F",
"Z 	c #424541",
"` 	c #595858",
" .	c #60615E",
"..	c #646463",
"+.	c #6D6D6D",
"@.	c #6E6E6E",
"#.	c #696969",
"$.	c #81A374",
"%.	c #AFE69A",
"&.	c #B0F8A1",
"*.	c #AAFEA0",
"=.	c #A9FDA2",
"-.	c #A0F4A5",
";.	c #87DB9B",
">.	c #416F51",
",.	c #3C4139",
"'.	c #535452",
").	c #1E2720",
"!.	c #181D1B",
"~.	c #1D2220",
"{.	c #252927",
"].	c #1E2220",
"^.	c #1A211D",
"/.	c #363D34",
"(.	c #363832",
"_.	c #3D4336",
":.	c #545751",
"<.	c #555555",
"[.	c #5F5F5F",
"}.	c #646464",
"|.	c #657064",
"1.	c #77AC79",
"2.	c #91DD90",
"3.	c #A1F39A",
"4.	c #A4F7A0",
"5.	c #94E99C",
"6.	c #8FE69E",
"7.	c #79C890",
"8.	c #2D4A35",
"9.	c #4B4E47",
"0.	c #494C48",
"a.	c #17201A",
"b.	c #191E1D",
"c.	c #252928",
"d.	c #55584C",
"e.	c #3E4235",
"f.	c #53846C",
"g.	c #4D504D",
"h.	c #4F4F4F",
"i.	c #595959",
"j.	c #606060",
"k.	c #5D605C",
"l.	c #5C645B",
"m.	c #5C5D5B",
"n.	c #5F625F",
"o.	c #698B6A",
"p.	c #79B57E",
"q.	c #80CE8D",
"r.	c #89DE98",
"s.	c #8AE19C",
"t.	c #66AE80",
"u.	c #313A2E",
"v.	c #565853",
"w.	c #353C36",
"x.	c #151B19",
"y.	c #1A1F1E",
"z.	c #1F2422",
"A.	c #222725",
"B.	c #242928",
"C.	c #252A28",
"D.	c #191F1C",
"E.	c #41473E",
"F.	c #4C5044",
"G.	c #465A4A",
"H.	c #436059",
"I.	c #484848",
"J.	c #4C4E4D",
"K.	c #545454",
"L.	c #57605A",
"M.	c #78C08B",
"N.	c #8BD798",
"O.	c #84CA8B",
"P.	c #76AC79",
"Q.	c #678766",
"R.	c #5C615A",
"S.	c #5D645E",
"T.	c #62866B",
"U.	c #6DAC7E",
"V.	c #75C48F",
"W.	c #498264",
"X.	c #454A41",
"Y.	c #585A59",
"Z.	c #212B23",
"`.	c #171A19",
" +	c #1C211F",
".+	c #52554C",
"++	c #3B4137",
"@+	c #465249",
"#+	c #464844",
"$+	c #4D8E79",
"%+	c #498F7D",
"&+	c #515151",
"*+	c #506D60",
"=+	c #70C593",
"-+	c #7FD295",
";+	c #98E5A0",
">+	c #A5EFA4",
",+	c #9AE39D",
"'+	c #82C790",
")+	c #659C71",
"!+	c #5B785E",
"~+	c #5A5C59",
"{+	c #5D615F",
"]+	c #5C7565",
"^+	c #535553",
"/+	c #5E5F5F",
"(+	c #4A4D4A",
"_+	c #162019",
":+	c #181C1B",
"<+	c #1D2221",
"[+	c #242A28",
"}+	c #1A1E1C",
"|+	c #373E35",
"1+	c #515449",
"2+	c #2B332B",
"3+	c #454543",
"4+	c #4B8572",
"5+	c #5ABC9D",
"6+	c #69C095",
"7+	c #4E6458",
"8+	c #4D695D",
"9+	c #68BC8E",
"0+	c #6DC18D",
"a+	c #83CF99",
"b+	c #94DDA1",
"c+	c #8ED6A0",
"d+	c #89D39C",
"e+	c #85D097",
"f+	c #7BC992",
"g+	c #6CB386",
"h+	c #59866B",
"i+	c #5A5E5A",
"j+	c #5D5E5E",
"k+	c #5B5C5C",
"l+	c #565656",
"m+	c #393E38",
"n+	c #151B18",
"o+	c #1A1F1D",
"p+	c #232927",
"q+	c #1A231D",
"r+	c #4C5046",
"s+	c #41473B",
"t+	c #414240",
"u+	c #476F60",
"v+	c #4CB49C",
"w+	c #6CC699",
"x+	c #71C895",
"y+	c #53846A",
"z+	c #4D5C54",
"A+	c #63B485",
"B+	c #6FC08B",
"C+	c #83CD99",
"D+	c #7AC497",
"E+	c #80C79A",
"F+	c #6AB78E",
"G+	c #4DA680",
"H+	c #59B187",
"I+	c #6ABF92",
"J+	c #72C69A",
"K+	c #62A384",
"L+	c #565956",
"M+	c #4E4E4E",
"N+	c #444443",
"O+	c #262E28",
"P+	c #171C1A",
"Q+	c #222826",
"R+	c #273128",
"S+	c #565A4E",
"T+	c #41433F",
"U+	c #405449",
"V+	c #51B19C",
"W+	c #5ABD9A",
"X+	c #71C995",
"Y+	c #72C891",
"Z+	c #5B9D75",
"`+	c #4F5150",
" @	c #5FAA7E",
".@	c #70BE8D",
"+@	c #54AA7E",
"@@	c #51A77A",
"#@	c #68B488",
"$@	c #59AA80",
"%@	c #48A27B",
"&@	c #49A581",
"*@	c #4AA989",
"=@	c #4CAE91",
"-@	c #48A28C",
";@	c #505753",
">@	c #4A4B4B",
",@	c #424342",
"'@	c #3A3B3A",
")@	c #2C322D",
"!@	c #151C18",
"~@	c #1B211F",
"{@	c #212725",
"]@	c #191E1B",
"^@	c #51544B",
"/@	c #40443F",
"(@	c #439A88",
"_@	c #61C3A6",
":@	c #66C395",
"<@	c #71C78F",
"[@	c #72C58B",
"}@	c #65AF7B",
"|@	c #4E504F",
"1@	c #519171",
"2@	c #50A77D",
"3@	c #50A67A",
"4@	c #51A677",
"5@	c #52A578",
"6@	c #5AAA7F",
"7@	c #47A179",
"8@	c #48A37F",
"9@	c #49A887",
"0@	c #48A98D",
"a@	c #417A6F",
"b@	c #474848",
"c@	c #434444",
"d@	c #3D3E3D",
"e@	c #393B38",
"f@	c #2F352E",
"g@	c #141D18",
"h@	c #202624",
"i@	c #19241C",
"j@	c #4C4F49",
"k@	c #3A6F63",
"l@	c #49B59D",
"m@	c #73CEA4",
"n@	c #68C391",
"o@	c #72C58A",
"p@	c #72C386",
"q@	c #71BB84",
"r@	c #4D5F53",
"s@	c #437560",
"t@	c #4FA67B",
"u@	c #50A679",
"v@	c #51A676",
"w@	c #4FA576",
"x@	c #56A77E",
"y@	c #46A178",
"z@	c #47A27D",
"A@	c #46A383",
"B@	c #3E8370",
"C@	c #454948",
"D@	c #3E5752",
"E@	c #3C8275",
"F@	c #3B3D39",
"G@	c #454840",
"H@	c #464D41",
"I@	c #131B16",
"J@	c #1F2523",
"K@	c #1A1D1C",
"L@	c #202B22",
"M@	c #444343",
"N@	c #3D4039",
"O@	c #399285",
"P@	c #60C39C",
"Q@	c #78D1A3",
"R@	c #6DC593",
"S@	c #73C58A",
"T@	c #7DCA8F",
"U@	c #6BB985",
"V@	c #4A6D59",
"W@	c #466457",
"X@	c #4DA37B",
"Y@	c #4FA77B",
"Z@	c #50A678",
"`@	c #55A87F",
" #	c #46A07A",
".#	c #449F7B",
"+#	c #3E7D68",
"@#	c #444846",
"##	c #3E6E61",
"$#	c #47A791",
"%#	c #4CB69E",
"&#	c #444B40",
"*#	c #4B4F45",
"=#	c #121714",
"-#	c #181E1C",
";#	c #1E2423",
">#	c #1F2221",
",#	c #191D1B",
"'#	c #29312A",
")#	c #454445",
"!#	c #435648",
"~#	c #56B599",
"{#	c #69C89C",
"]#	c #7FD6A6",
"^#	c #81D3A0",
"/#	c #8ED9A0",
"(#	c #73C28E",
"_#	c #61B583",
":#	c #4C7F64",
"<#	c #4B5550",
"[#	c #489D7B",
"}#	c #50A981",
"|#	c #50A87F",
"1#	c #4FA87E",
"2#	c #55A983",
"3#	c #449D7A",
"4#	c #3E7660",
"5#	c #434645",
"6#	c #3F7964",
"7#	c #4FAD8E",
"8#	c #53B89C",
"9#	c #52BAA1",
"0#	c #4E5249",
"a#	c #3A4038",
"b#	c #121614",
"c#	c #191C1B",
"d#	c #283029",
"e#	c #424142",
"f#	c #556152",
"g#	c #86D394",
"h#	c #91E7A1",
"i#	c #90E5A5",
"j#	c #90E1A5",
"k#	c #8CD8A5",
"l#	c #64B989",
"m#	c #63B887",
"n#	c #4F906F",
"o#	c #504F4F",
"p#	c #438A73",
"q#	c #4FAB87",
"r#	c #50AB86",
"s#	c #50AA84",
"t#	c #4DA280",
"u#	c #457461",
"v#	c #434644",
"w#	c #407E65",
"x#	c #50AC87",
"y#	c #56B692",
"z#	c #5DBEA1",
"A#	c #49B299",
"B#	c #44483E",
"C#	c #52564D",
"D#	c #293029",
"E#	c #121715",
"F#	c #191F1D",
"G#	c #1F2524",
"H#	c #1A261D",
"I#	c #373837",
"J#	c #414141",
"K#	c #5A6B55",
"L#	c #8DC480",
"M#	c #AFF49D",
"N#	c #B4FDA4",
"O#	c #A2EEA8",
"P#	c #87D59C",
"Q#	c #6BC08D",
"R#	c #549D7A",
"S#	c #4D4D4D",
"T#	c #47695F",
"U#	c #4CA789",
"V#	c #4FAC8B",
"W#	c #489B7E",
"X#	c #446759",
"Y#	c #414644",
"Z#	c #428469",
"`#	c #51AB84",
" $	c #55B38B",
".$	c #62BD9A",
"+$	c #4FB69A",
"@$	c #3F9C86",
"#$	c #40433A",
"$$	c #54574E",
"%$	c #162018",
"&$	c #131816",
"*$	c #1A201E",
"=$	c #1F2624",
"-$	c #202322",
";$	c #161A18",
">$	c #252E26",
",$	c #3B3C37",
"'$	c #3A3D39",
")$	c #424242",
"!$	c #5A6A54",
"~$	c #88B179",
"{$	c #A1E391",
"]$	c #9FEC9C",
"^$	c #99E7A0",
"/$	c #6DAF82",
"($	c #4C4C4C",
"_$	c #476E64",
":$	c #457467",
"<$	c #45504C",
"[$	c #404543",
"}$	c #5E9B80",
"|$	c #56AF89",
"1$	c #56B28A",
"2$	c #65BE97",
"3$	c #57B895",
"4$	c #48B397",
"5$	c #378170",
"6$	c #3D3F39",
"7$	c #4F534A",
"8$	c #111A14",
"9$	c #151A18",
"0$	c #181B1A",
"a$	c #161E18",
"b$	c #353B32",
"c$	c #474D3D",
"d$	c #19251A",
"e$	c #566C49",
"f$	c #4F5F4A",
"g$	c #4B4F4A",
"h$	c #65875D",
"i$	c #73A66E",
"j$	c #547358",
"k$	c #4A4A4A",
"l$	c #434343",
"m$	c #3F403F",
"n$	c #56937A",
"o$	c #83D1AA",
"p$	c #76C8A2",
"q$	c #71C69F",
"r$	c #5BB994",
"s$	c #51B693",
"t$	c #46B097",
"u$	c #306457",
"v$	c #3B3D38",
"w$	c #474D43",
"x$	c #111613",
"y$	c #161B19",
"z$	c #161A19",
"A$	c #18231B",
"B$	c #42473B",
"C$	c #414638",
"D$	c #24311C",
"E$	c #8DBA7D",
"F$	c #99C782",
"G$	c #5D7854",
"H$	c #3F3F3F",
"I$	c #444444",
"J$	c #474747",
"K$	c #3E3E3E",
"L$	c #4F705B",
"M$	c #91DEAB",
"N$	c #8DDEAD",
"O$	c #78CEA7",
"P$	c #6BC39F",
"Q$	c #53B692",
"R$	c #52B796",
"S$	c #42A995",
"T$	c #2F4639",
"U$	c #3D423A",
"V$	c #1E2920",
"W$	c #474C3F",
"X$	c #393F32",
"Y$	c #3A4C30",
"Z$	c #B4E297",
"`$	c #C3F89F",
" %	c #8BC37B",
".%	c #455242",
"+%	c #3B3B3B",
"@%	c #3C3C3C",
"#%	c #3A3A3A",
"$%	c #383838",
"%%	c #49664E",
"&%	c #91DA99",
"*%	c #9FF0A8",
"=%	c #95E9A6",
"-%	c #7AD29F",
";%	c #59BC97",
">%	c #53B99A",
",%	c #3B9788",
"'%	c #394034",
")%	c #383937",
"!%	c #262D26",
"~%	c #141716",
"{%	c #1E2422",
"]%	c #242F25",
"^%	c #494D40",
"/%	c #313A2C",
"(%	c #5C6F50",
"_%	c #BFEE9D",
":%	c #C7FFA4",
"<%	c #91CC82",
"[%	c #333333",
"}%	c #323232",
"|%	c #323132",
"1%	c #313031",
"2%	c #313131",
"3%	c #3C423B",
"4%	c #5C7D5A",
"5%	c #74A874",
"6%	c #83C787",
"7%	c #89D896",
"8%	c #6FC395",
"9%	c #3A7163",
"0%	c #52564A",
"a%	c #292D2A",
"b%	c #131B15",
"c%	c #161B18",
"d%	c #4A4E41",
"e%	c #3D4238",
"f%	c #718A62",
"g%	c #C0F59F",
"h%	c #ABE895",
"i%	c #303131",
"j%	c #51734E",
"k%	c #8ECF87",
"l%	c #9EE196",
"m%	c #91D78D",
"n%	c #72AE76",
"o%	c #588057",
"p%	c #32392F",
"q%	c #353535",
"r%	c #3E423D",
"s%	c #485245",
"t%	c #4C4E48",
"u%	c #363836",
"v%	c #202524",
"w%	c #191D1C",
"x%	c #2F372D",
"y%	c #4D5144",
"z%	c #505348",
"A%	c #789865",
"B%	c #83B577",
"C%	c #3F513D",
"D%	c #94D990",
"E%	c #9FDE96",
"F%	c #82BC7C",
"G%	c #5E8E5D",
"H%	c #3F5E3B",
"I%	c #142214",
"J%	c #182318",
"K%	c #353C2F",
"L%	c #474B40",
"M%	c #363733",
"N%	c #2A2C2B",
"O%	c #212923",
"P%	c #121A15",
"Q%	c #151918",
"R%	c #171B1A",
"S%	c #141B16",
"T%	c #333B31",
"U%	c #595D4F",
"V%	c #4E5247",
"W%	c #3D4435",
"X%	c #4E5B46",
"Y%	c #485442",
"Z%	c #293028",
"`%	c #293125",
" &	c #393F33",
".&	c #464B3E",
"+&	c #505547",
"@&	c #575B4D",
"#&	c #4F5347",
"$&	c #3F453A",
"%&	c #232B23",
"&&	c #141E16",
"*&	c #141817",
"=&	c #131A16",
"-&	c #2D342C",
";&	c #373836",
">&	c #2D2D2D",
",&	c #4C5045",
"'&	c #5B5F51",
")&	c #5A5E51",
"!&	c #53574B",
"~&	c #494E42",
"{&	c #3E443A",
"]&	c #30362E",
"^&	c #1C261D",
"/&	c #121C15",
"(&	c #101512",
"_&	c #111312",
":&	c #131514",
"<&	c #161918",
"[&	c #232624",
"}&	c #131715",
"|&	c #18221A",
"1&	c #1F2720",
"2&	c #252B25",
"3&	c #1C251D",
"4&	c #121D15",
"5&	c #121814",
"6&	c #131615",
"7&	c #151817",
"8&	c #222523",
"9&	c #151816",
"0&	c #121514",
"a&	c #111413",
"  . + @ # # $ $ $ % % & & * * = - - ; ; ; > , , $ $ # # @ + + @ ",
". + @ # # $ $ % & & * * = - ; ' ) ! ~ ~ ~ ) ' > , $ $ $ # , , @ ",
"+ @ # { $ % % * * = - ] ^ ! / ( _ : < [ } | 1 ) 2 3 * $ 4 $ 5 , ",
"@ # { $ % * = , 2 ) 6 ( 7 8 9 0 a b c d e f g h ) - = & * * $ { ",
"# # $ % 4 = 2 ) / _ i j k l m n o p q r s t u v h w x y z * % A ",
"# $ % * = 2 B C D E F G H I J K L M N O P Q R S T U V W X z % % ",
"$ $ % = 2 B Y Z `  ...+.@.#.$.%.&.*.=.-.;.>.,.'.).!.~.- W {.{.z ",
"$ % * - ].^./.(._.:.<.[.}.}.|.1.2.3.4.5.6.7.8.9.0.a.b.^ = y c.z ",
"4 & = ] / j d.e.f.g.h.i.j.k.l.m.n.o.p.q.r.s.t.u.v.w.x.y.z.A.B.C.",
"% * = ) D.E.F.G.H.I.J.K.L.M.N.O.P.Q.R.S.T.U.V.W.X.Y.Z.`. +- X C.",
"& 4 2 U 9 .+++@+#+$+%+&+*+=+-+;+>+,+'+)+!+~+{+]+^+/+(+_+:+<+A.[+",
"% = ^ }+|+1+2+3+4+5+6+7+8+9+0+a+b+c+d+e+f+g+h+i+j+k+l+m+n+o+V p+",
"4 ; 6 q+r+s+t+u+v+w+x+y+z+A+B+C+D+E+F+G+H+I+J+K+L+K.M+N+O+P+^ Q+",
"= ' }+R+S+T+U+V+W+X+Y+Z+`+ @.@+@@@#@$@%@&@*@=@-@;@>@,@'@)@!@~@{@",
"- ! ]@E.^@/@(@_@:@<@[@}@|@1@2@3@4@5@6@7@8@9@0@a@b@c@d@e@f@g@o+h@",
"2 / i@j@N+k@l@m@n@o@p@q@r@s@t@u@v@w@x@y@z@A@B@C@D@E@F@G@H@I@7 J@",
"' K@L@M@N@O@P@Q@R@S@T@U@V@W@X@Y@3@Z@`@ #.#+#@###$#%#&#*#a =#-#;#",
">#,#'#)#!#~#{#]#^#/#(#_#:#<#[#}#|#1#2#3#4#5#6#7#8#9#H@0#a#b#7 J@",
">#c#d#e#f#g#h#i#j#k#l#m#n#o#p#q#r#s#t#u#v#w#x#y#z#A#B#C#D#E#F#G#",
">#K@H#I#J#K#L#M#N#O#P#Q#R#S#T#U#V#W#X#Y#Z#`# $.$+$@$#$$$%$&$*$=$",
"-$/ ;$>$,$'$)$!$~${$]$^$/$($h._$:$<$[$}$|$1$2$3$4$5$6$7$8$9$ +h@",
"; ! 0$a$b$c$d$e$f$g$h$i$j$k$S#k$l$m$n$o$p$q$r$s$t$u$v$w$x$y$~.{@",
", ' / z$A$B$C$D$E$F$G$H$J#I$J$l$K$L$M$N$O$P$Q$R$S$T$v$U$b#!.^ {@",
"$ - >#( ;$V$W$X$Y$Z$`$ %.%+%@%#%$%%%&%*%=%-%;%>%,%'%)%!%~%( {%{@",
"$ = - ) ( y$]%^%/%(%_%:%<%[%}%|%1%2%3%4%5%6%7%8%9%0%a%b%;$6 z.A.",
"$ % = - ) ( c%q d%e%f%g%h%i%j%k%l%m%n%o%p%q%r%s%t%u%).b#c#~.v%x ",
"$ 4 % = - ].w%!@x%y%z%A%B%C%D%E%F%G%H%I%J%K%L%M%N%O%P%Q%/ w - = ",
"# $ % * = 2 6 R%S%T%U%V%W%X%Y%Z%`% &.&+&@&#&$&%&&&x$*&w%) ; 3 = ",
"# { $ % * = -$/ ;$=&-&;&>&,&'&)&!&~&{&]&^&/&(&_&:&<&w%! 2 , [&, ",
"@ # $ $ % 4 - >#h <&}&|&1&2&Z%3&4&5&b#6&~%7&<&T c#/ ].2 - = # 8&",
"+ @ # $ $ % $ - >#1 0$9&0&a&a&0&~%<&0$w%( / 6 ! ) ' ; - = $ , + ",
". + @ # { $ $ 3 > ' ~ h c#0$0$c#( 1 B ) ' ' 2 > , , , $ $ $ ; + "};
